<?xml version="1.0" encoding="iso-8859-1"?>
<!-- Generator: Adobe Illustrator 19.0.0, SVG Export Plug-In . SVG Version: 6.00 Build 0)  -->
<svg version="1.1" id="Layer_1" xmlns="http://www.w3.org/2000/svg" xmlns:xlink="http://www.w3.org/1999/xlink" x="0px" y="0px"
	 viewBox="0 0 512 512" style="enable-background:new 0 0 512 512;" xml:space="preserve">
<path style="fill:#C1BDAB;" d="M310.359,395.583H256l-44.912,58.209L256,512c24.939,0,49.048-3.544,71.86-10.143
	c9.315-2.695,18.413-5.903,27.263-9.585c10.707-4.456,21.054-9.607,30.977-15.405c-7.898-29.307-25.428-54.664-48.994-72.457
	C329.419,398.607,319.99,395.583,310.359,395.583z"/>
<path style="fill:#8D472E;" d="M302.287,395.583H256l-44.912,58.209L256,512c24.939,0,49.048-3.544,71.86-10.143
	c9.315-2.695,18.413-5.903,27.263-9.585l0,0c-3.919-19.793-13.615-37.508-27.263-51.311
	C315.593,428.552,306.818,412.979,302.287,395.583z"/>
<path style="fill:#D5D2BD;" d="M174.894,404.409c-23.564,17.793-41.096,43.148-48.993,72.457
	c9.922,5.798,20.269,10.948,30.977,15.405c8.85,3.684,17.947,6.891,27.263,9.585c22.812,6.6,46.921,10.143,71.86,10.143V395.583
	h-54.36C192.01,395.583,182.581,398.607,174.894,404.409z"/>
<path style="fill:#AB5034;" d="M210.022,395.583c-4.556,17.397-13.615,32.97-25.882,45.377
	c-13.647,13.804-23.343,31.518-27.263,51.311c8.85,3.684,17.947,6.891,27.263,9.585C206.952,508.456,231.061,512,256,512V395.583
	H210.022z"/>
<g>
	<path style="fill:#6F3D28;" d="M327.859,501.857c9.315-2.695,18.413-5.903,27.263-9.585c-3.919-19.793-13.615-37.508-27.263-51.311
		V501.857z"/>
	<path style="fill:#6F3D28;" d="M156.877,492.271c8.85,3.684,17.947,6.891,27.263,9.585v-60.898
		C170.493,454.763,160.797,472.477,156.877,492.271z"/>
</g>
<path style="fill:#47423F;" d="M256,510.877l33.684-33.684l3.289-3.289c2.203-2.203,3.286-5.092,3.286-7.98s-1.085-5.777-3.286-7.98
	L256,420.973l-8.982,44.953L256,510.877z"/>
<path style="fill:#5B5751;" d="M222.316,454.657l-3.289,3.289c-2.203,2.203-3.286,5.093-3.286,7.98s1.085,5.777,3.286,7.98
	L256,510.877v-89.904L222.316,454.657z"/>
<path style="fill:#6F3D28;" d="M211.087,414.098v27.198c0,12.004,14.513,18.015,23.001,9.527l10.002-10.002h23.818l10.002,10.002
	c8.488,8.488,23.001,2.477,23.001-9.527V414.16L211.087,414.098z"/>
<path style="fill:#AB5034;" d="M272.816,414.16h-33.63c-0.006,0.184-0.028,14.566-0.028,14.753c0,4.651,1.885,8.861,4.934,11.91
	c3.047,3.047,7.258,4.932,11.908,4.932s8.861-1.885,11.909-4.932c3.048-3.048,4.934-7.259,4.934-11.91
	C272.842,428.736,272.821,414.335,272.816,414.16z"/>
<path style="fill:#E1B872;" d="M430.035,203.228c-8.237,0-16.006,1.984-22.876,5.48C390.368,145.199,340.236,87.74,278.53,76.215
	c-7.36-1.374-14.879-2.11-22.53-2.11c-71.81,0-132.371,63.497-151.159,134.585l94.946,211.375
	c17.456,8.492,36.405,13.338,56.213,13.338c71.809,0,132.369-63.515,151.16-134.602c6.869,3.495,14.638,5.479,22.875,5.479
	c27.905,0,50.526-22.621,50.526-50.526S457.94,203.228,430.035,203.228z"/>
<path style="fill:#ECCE93;" d="M362.022,265.443c-10.185,2.779-20.769,4.182-31.687,4.182c-0.001,0-0.002,0-0.003,0
	c-21.964,0-40.624-5.74-52.41-10.554c-15.487-6.327-25.773-21.229-26.204-37.964c-0.049-1.91-0.115-3.738-0.193-5.488
	c-0.273-6.003-4.49-11.068-10.33-12.482c-19.385-4.698-38.411-10.657-56.993-17.832c-5.7-2.202-12.151-0.324-15.771,4.599
	c-5.824,7.921-11.075,17.546-15.629,28.766c-0.108,0.265-0.217,0.528-0.329,0.788c-5.382,12.524-22.102,14.316-30.434,3.538
	c-0.568-0.739-1.156-1.459-1.764-2.165l-0.156-0.18c-0.446-0.513-1.333-1.481-1.803-1.971c-0.001-0.001-0.002-0.002-0.003-0.003
	c-2.547-2.637-5.373-5.002-8.439-7.039c-0.191-0.127-0.386-0.246-0.578-0.371c-0.539-0.347-1.081-0.687-1.634-1.014
	c-0.278-0.165-0.561-0.324-0.843-0.485c-0.481-0.272-0.964-0.537-1.455-0.794c-0.174-0.091-0.341-0.192-0.515-0.281
	c-0.001,0.006-0.002,0.01-0.003,0.015c-7.853-3.996-16.879-6.017-26.436-5.358c-25.591,1.764-46.018,22.915-46.936,48.55
	c-1.028,28.749,21.972,52.38,50.493,52.38c8.241,0,16.013-1.986,22.886-5.485c13.608,51.475,49.109,98.978,94.936,121.27
	c7.359,1.374,14.878,2.11,22.529,2.11c74.966,0,137.671-69.223,153.391-144.019C377.389,270.151,369.914,263.29,362.022,265.443z"/>
<circle style="fill:#E1B872;" cx="81.965" cy="253.754" r="16.842"/>
<circle style="fill:#D5A150;" cx="430.035" cy="253.754" r="16.842"/>
<path style="opacity:0.2;fill:#463540;enable-background:new    ;" d="M379.503,253.76L379.503,253.76v-0.006
	c0.158-3.015-1.378-5.937-4.062-7.318c-6.399-3.292-12.78,1.268-12.78,7.318c0,0.002,0,0.003,0,0.006l0,0
	c0,18.606-15.084,33.679-33.69,33.679h-14.035c-9.299,0-16.836,7.539-16.836,16.836l0,0c0,13.952-11.311,25.263-25.263,25.263
	h-33.695c-13.946,0-25.252-11.306-25.252-25.252v-0.011c0-9.299-7.537-16.836-16.836-16.836h-14.035
	c-18.606,0-33.69-15.073-33.69-33.679l0,0v-0.006c0.158-3.015-1.378-5.937-4.062-7.318c-6.399-3.292-12.78,1.268-12.78,7.318
	c0,0.002,0,0.003,0,0.006l0,0c0,19.672-11.233,36.715-27.644,45.058c13.608,51.475,49.113,98.955,94.939,121.249
	c17.456,8.491,36.404,13.337,56.213,13.337c71.809,0,132.373-63.497,151.165-134.584C390.735,290.48,379.503,273.439,379.503,253.76
	z"/>
<path style="fill:#584639;" d="M256,74.105c-71.809,0-132.369,63.515-151.16,134.602v0.019c0.742,0.378,1.483,0.759,2.203,1.172
	c8.046,4.403,17.976,10.049,22.349-0.73c35.447-87.332,102.726-78.574,127.495-54.344c12.883,12.605,19.144,29.136,20.085,65.631
	c0.173,6.718,4.281,12.687,10.503,15.229c17.754,7.253,55.66,17.562,92.909-5.556c4.711-2.924,8.841-6.662,12.615-10.725
	c4.035-4.346,8.827-7.979,14.163-10.696l0,0C388.369,137.62,327.809,74.105,256,74.105z"/>
<path style="fill:#8D472E;" d="M402.524,187.858V33.684C402.524,15.08,387.443,0,368.84,0H166.734
	c-18.604,0-33.684,15.08-33.684,33.684v99.236c64.156,36.862,138.523,57.957,217.825,57.957
	C368.35,190.877,385.584,189.85,402.524,187.858z"/>
<path style="fill:#47423F;" d="M350.875,140.362c-79.301,0-153.668-21.095-217.825-57.957v50.515
	c64.156,36.862,138.523,57.957,217.825,57.957c17.475,0,34.709-1.027,51.649-3.019v-50.515
	C385.584,139.335,368.35,140.362,350.875,140.362z"/>
<path style="fill:#AB5034;" d="M133.05,33.684v48.721c48.14,27.66,102.029,46.442,159.439,54.096V33.684
	C292.489,15.08,277.408,0,258.805,0h-92.07C148.132,0,133.05,15.08,133.05,33.684z"/>
<path style="fill:#5B5751;" d="M133.05,82.405v50.515c48.14,27.66,102.029,46.442,159.439,54.096v-50.515
	C235.08,128.847,181.19,110.064,133.05,82.405z"/>
<path style="fill:#8D472E;" d="M350.875,199.298c-95.415,0-186.434-29.685-263.217-85.845c-3.754-2.745-4.571-8.015-1.826-11.768
	c2.746-3.755,8.016-4.571,11.768-1.826c73.877,54.035,161.457,82.597,253.274,82.597c33.465,0,66.813-3.869,99.117-11.501
	c4.528-1.066,9.062,1.734,10.131,6.26c1.069,4.526-1.734,9.062-6.26,10.131C420.293,195.277,385.642,199.298,350.875,199.298z"/>
<path style="fill:#584639;" d="M184.25,214.142c-3.55,0-6.851-2.262-8.007-5.822c-1.437-4.423,0.984-9.173,5.406-10.611
	c11.929-3.876,24.524-3.876,36.425-0.001c4.423,1.439,6.84,6.192,5.401,10.614c-1.439,4.423-6.189,6.842-10.614,5.401
	c-8.494-2.764-17.487-2.763-26.008,0.004C185.988,214.008,185.112,214.142,184.25,214.142z"/>
<g>
	<path style="fill:#47423F;" d="M199.859,279.018c-13.93,0-25.263-11.332-25.263-25.263c0-4.651,3.769-8.421,8.421-8.421
		s8.421,3.77,8.421,8.421c0,4.644,3.777,8.421,8.421,8.421s8.421-3.777,8.421-8.421c0-4.651,3.769-8.421,8.421-8.421
		s8.421,3.77,8.421,8.421C225.123,267.685,213.789,279.018,199.859,279.018z"/>
	<path style="fill:#47423F;" d="M312.14,279.018c-13.93,0-25.263-11.332-25.263-25.263c0-4.651,3.769-8.421,8.421-8.421
		s8.421,3.77,8.421,8.421c0,4.644,3.777,8.421,8.421,8.421s8.421-3.777,8.421-8.421c0-4.651,3.769-8.421,8.421-8.421
		s8.421,3.77,8.421,8.421C337.403,267.685,326.07,279.018,312.14,279.018z"/>
</g>
<g>
	<path style="fill:#584639;" d="M199.859,312.702c-4.651,0-8.421-3.77-8.421-8.421s3.77-8.421,8.421-8.421
		c14.987,0,28.961-8.068,36.469-21.055c2.329-4.026,7.478-5.403,11.505-3.075c4.026,2.328,5.403,7.479,3.075,11.505
		C240.401,301.411,220.84,312.702,199.859,312.702z"/>
	<path style="fill:#584639;" d="M312.14,312.702c-20.981,0-40.541-11.291-51.051-29.468c-2.328-4.026-0.951-9.178,3.075-11.505
		c4.026-2.326,9.177-0.951,11.505,3.075c7.508,12.988,21.483,21.055,36.469,21.055c4.651,0,8.421,3.77,8.421,8.421
		S316.791,312.702,312.14,312.702z"/>
</g>
<path style="fill:#6F3D28;" d="M273.862,305.624c-1.489-1.489-3.377-2.325-5.324-2.466h-0.629l0,0h-23.817
	c-2.155,0-4.31,0.822-5.954,2.466c-3.29,3.289-3.29,8.621-0.001,11.91c4.772,4.772,11.116,7.399,17.864,7.399
	c6.748,0,13.092-2.628,17.864-7.399C277.152,314.244,277.152,308.912,273.862,305.624z"/>
<g>
</g>
<g>
</g>
<g>
</g>
<g>
</g>
<g>
</g>
<g>
</g>
<g>
</g>
<g>
</g>
<g>
</g>
<g>
</g>
<g>
</g>
<g>
</g>
<g>
</g>
<g>
</g>
<g>
</g>
</svg>
